<svg width="70" height="71" viewBox="0 0 70 71" fill="none" xmlns="http://www.w3.org/2000/svg">
<g clip-path="url(#clip0_52_44)">
<path d="M61.3183 54.1758C61.3183 52.6446 60.7988 51.8926 59.3769 51.4278C54.8242 49.9102 50.2577 48.4063 45.705 46.8614C44.6933 46.5196 43.8456 46.6563 42.9843 47.2578C41.2753 48.4336 39.5117 49.5684 37.8027 50.7442C37.3925 51.0176 37.0917 51.0313 36.6542 50.7989C33.7695 49.2813 31.1992 47.3262 28.8339 45.125C25.5253 42.0489 22.6269 38.6582 20.4531 34.666C20.166 34.1465 20.207 33.791 20.5488 33.3125C21.7245 31.6309 22.832 29.8946 23.9941 28.1856C24.5683 27.3516 24.705 26.5176 24.3769 25.5332C22.8183 20.9395 21.3007 16.3321 19.7558 11.7246C19.3183 10.4395 18.5253 9.87894 17.1718 9.86527C14.0683 9.86527 10.9785 9.8516 7.87494 9.86527C3.58197 9.90628 0.505796 13.0235 0.53314 17.3164C0.587827 24.795 2.43353 31.8496 5.79681 38.5078C11.9218 50.6348 21.0956 59.6582 33.332 65.6055C39.8808 68.791 46.8261 70.5 54.1269 70.5C57.6542 70.5 60.6757 68.0664 61.1542 64.5938C61.2089 64.1836 61.2363 63.7598 61.2636 63.336V63.3086C61.2773 62.8985 61.2773 62.4746 61.2773 62.0508L61.3183 58.8243C61.3183 57.2793 61.332 55.7344 61.3183 54.1758Z" fill="url(#paint0_linear_52_44)"/>
<path d="M61.5372 8.66214C57.5723 4.46487 52.7051 1.81253 47.086 0.582061C45.2266 0.171904 43.5997 1.36136 43.5176 3.16604C43.4493 4.65628 44.3926 5.7637 46.0879 6.13284C49.2598 6.84378 52.2129 8.08792 54.7422 10.125C62.0157 15.9356 64.9141 23.4688 63.3555 32.67C63.0684 34.3516 63.9981 35.8145 65.5567 36.1153C67.1153 36.416 68.5919 35.4043 68.8653 33.7227C69.1524 31.9043 69.3301 30.0723 69.4532 29.0742C69.3438 20.6797 66.7325 14.1309 61.5372 8.66214Z" fill="url(#paint1_linear_52_44)"/>
<path d="M42.9981 14.8145C50.9688 16.8106 55.5489 23.7832 54.1817 31.877C53.8946 33.586 54.8243 35.0352 56.3829 35.3223C57.9962 35.6231 59.4317 34.6113 59.7188 32.875C59.9239 31.6172 60.0333 30.3321 60.1837 29.0606C60.1153 19.627 53.4297 11.3145 44.2559 9.33205C42.4922 8.94924 41.0157 9.7969 40.6602 11.3828C40.3047 12.9688 41.2481 14.377 42.9981 14.8145Z" fill="url(#paint2_linear_52_44)"/>
<path d="M39.9083 23.5782C43.668 24.6309 45.4864 27.4336 44.9122 31.3165C44.6934 32.8477 45.6641 34.2696 47.127 34.5293C48.6856 34.8028 50.1211 33.8594 50.4219 32.3282C50.5723 31.5215 50.627 30.6875 50.7227 29.8672C50.6133 24.1934 46.7169 19.3536 41.2344 18.1368C39.5528 17.7676 38.1036 18.6153 37.7208 20.2012C37.379 21.7051 38.2813 23.127 39.9083 23.5782Z" fill="url(#paint3_linear_52_44)"/>
</g>
<defs>
<linearGradient id="paint0_linear_52_44" x1="-6.38975" y1="7.90281" x2="61.8302" y2="76.1241" gradientUnits="userSpaceOnUse">
<stop stop-color="#F1592A"/>
<stop offset="1" stop-color="#FDAB22"/>
</linearGradient>
<linearGradient id="paint1_linear_52_44" x1="21.1725" y1="-19.6607" x2="89.3937" y2="48.5606" gradientUnits="userSpaceOnUse">
<stop stop-color="#F1592A"/>
<stop offset="1" stop-color="#FDAB22"/>
</linearGradient>
<linearGradient id="paint2_linear_52_44" x1="15.701" y1="-14.1892" x2="83.9223" y2="54.0321" gradientUnits="userSpaceOnUse">
<stop stop-color="#F1592A"/>
<stop offset="1" stop-color="#FDAB22"/>
</linearGradient>
<linearGradient id="paint3_linear_52_44" x1="10.1877" y1="-8.67446" x2="78.4076" y2="59.5455" gradientUnits="userSpaceOnUse">
<stop stop-color="#F1592A"/>
<stop offset="1" stop-color="#FDAB22"/>
</linearGradient>
<clipPath id="clip0_52_44">
<rect width="70" height="70" fill="white" transform="translate(0 0.5)"/>
</clipPath>
</defs>
</svg>
