<svg id="Capa_1" enable-background="new 0 0 512 512" height="512" viewBox="0 0 512 512" width="512" xmlns="http://www.w3.org/2000/svg"><g><g><path d="m135 414.011h71.997v30h-71.997z" fill="#ffb655"/></g><g><path d="m135 346.022h71.997v30h-71.997z" fill="#ffb655"/></g><g><path d="m135 278.033h71.997v30h-71.997z" fill="#ffb655"/></g><g><path d="m135 210.044h71.997v30h-71.997z" fill="#ffb655"/></g><g><path d="m170.998 414.011h35.998v30h-35.998z" fill="#ff7c48"/></g><g><path d="m170.998 346.022h35.998v30h-35.998z" fill="#ff7c48"/></g><g><path d="m170.998 278.033h35.998v30h-35.998z" fill="#ff7c48"/></g><g><path d="m170.998 210.044h35.998v30h-35.998z" fill="#ff7c48"/></g><g><g><path d="m512 172.056h-512v-101.996h443.683l68.317 75.947zm-482-30h438.094l-37.777-41.996h-400.317z" fill="#ffb655"/></g></g><g><path d="m60 43h30v156.114h-30z" fill="#0b799d"/></g><g><path d="m408 157.056h30v158.944h-30z" fill="#07485e"/></g><g><path d="m221.997 512h-101.997v-429.634l30.565-82.366h40.867l30.565 82.366zm-71.997-30h41.997v-394.247l-20.998-56.586-20.999 56.586z" fill="#ff6426"/></g><g><path d="m469 442.5h-16c-24.813 0-45-20.187-45-45v-30h30v30c0 8.271 6.729 15 15 15h16z" fill="#cdcdcd"/></g><g><g><path d="m461.522 376.022h-77.045v-77.045h77.045z" fill="#0b799d"/></g></g><g><path d="m395.963 85.06h30v71.996h-30z" fill="#ffb655"/></g><g><path d="m327.974 85.06h30v71.996h-30z" fill="#ffb655"/></g><g><path d="m259.985 85.06h30v71.996h-30z" fill="#ffb655"/></g><path d="m443.683 70.06h-272.685v30h259.319l37.777 41.996h-297.096v30h341.002v-26.049z" fill="#ff7c48"/><path d="m191.432 0h-20.434v31.168l.001-.001 20.998 56.586v394.247h-20.999v30h50.999v-429.634z" fill="#d03b00"/></g></svg>