<svg width="71" height="70" viewBox="0 0 71 70" fill="none" xmlns="http://www.w3.org/2000/svg">
<g clip-path="url(#clip0_52_53)">
<path d="M9.67407 19.1311L0.500244 25.8987L35.5001 70.0001L70.5002 25.8987L61.3263 19.1311H9.67407Z" fill="#F1592A"/>
<path d="M35.5 19.1311V70.0001L70.5 25.8987L61.3262 19.1311H35.5Z" fill="#F1592A"/>
<path d="M35.5 -2.47955e-05L23.3525 8.87165L25.7725 12.183H45.2275L47.6476 8.87165L35.5 -2.47955e-05Z" fill="#F1592A"/>
<path d="M35.5 -2.47955e-05V12.183H45.2275L47.6476 8.87165L35.5 -2.47955e-05Z" fill="#F1592A"/>
<path d="M8.83984 8.47657V34.691L35.4999 70L62.1601 34.7102V8.47657H8.83984Z" fill="#ECECF1"/>
<path d="M35.5 8.47657V70L62.1602 34.7102V8.47657H35.5Z" fill="#CFDDE2"/>
<path d="M0.5 70L20.0508 61.5234L31.3984 51.543L0.5 25.8981V70Z" fill="#F1592A"/>
<path d="M39.6016 51.543L52.1797 62.207L70.5 70V25.8981L39.6016 51.543Z" fill="#F1592A"/>
<path d="M31.3984 51.543L0.5 70H70.5L39.6016 51.543H31.3984Z" fill="#F1592A"/>
<path d="M35.5 51.543V70H70.5L39.6017 51.543H35.5Z" fill="#F1592A"/>
<mask id="mask0_52_53" style="mask-type:luminance" maskUnits="userSpaceOnUse" x="0" y="0" width="71" height="70">
<path d="M0.5 7.62939e-06H70.5V70H0.5V7.62939e-06Z" fill="white"/>
</mask>
<g mask="url(#mask0_52_53)">
<path d="M37.5508 31.0352C37.5508 32.1658 36.6307 33.0859 35.5 33.0859C34.3693 33.0859 33.4492 32.1658 33.4492 31.0352C33.4492 29.9045 34.3693 28.9844 35.5 28.9844H37.5508V31.0352ZM35.5 16.6797C27.584 16.6797 21.1445 23.1191 21.1445 31.0352C21.1445 38.9512 27.584 45.3906 35.5 45.3906C37.1406 45.3906 38.7498 45.1158 40.2852 44.573L38.918 40.7066C37.8242 41.0936 36.673 41.2891 35.5 41.2891C29.8467 41.2891 25.2461 36.6898 25.2461 31.0352C25.2461 25.3805 29.8467 20.7813 35.5 20.7813C41.1533 20.7813 45.7539 25.3805 45.7539 31.0352C45.7539 32.1658 44.8338 33.0859 43.7031 33.0859C42.5725 33.0859 41.6523 32.1658 41.6523 31.0352V24.8828H35.5C32.108 24.8828 29.3477 27.6432 29.3477 31.0352C29.3477 34.4271 32.108 37.1875 35.5 37.1875C37.075 37.1875 38.5119 36.5928 39.6016 35.6152C40.6912 36.5928 42.1281 37.1875 43.7031 37.1875C47.0951 37.1875 49.8555 34.4271 49.8555 31.0352C49.8555 23.1191 43.416 16.6797 35.5 16.6797Z" fill="#FF8856"/>
<path d="M38.918 40.7066L40.2852 44.573C38.7498 45.1158 37.1406 45.3906 35.5 45.3906V41.2891C36.673 41.2891 37.8242 41.0936 38.918 40.7066Z" fill="#FF4949"/>
<path d="M49.8555 31.0352C49.8555 34.4271 47.0951 37.1875 43.7031 37.1875C42.1281 37.1875 40.6912 36.5928 39.6016 35.6152C38.5119 36.5928 37.075 37.1875 35.5 37.1875V33.0859C36.6307 33.0859 37.5508 32.1658 37.5508 31.0352V28.9844H35.5V24.8828H41.6523V31.0352C41.6523 32.1658 42.5725 33.0859 43.7031 33.0859C44.8338 33.0859 45.7539 32.1658 45.7539 31.0352C45.7539 25.3805 41.1533 20.7813 35.5 20.7813V16.6797C43.416 16.6797 49.8555 23.1191 49.8555 31.0352Z" fill="#FF4949"/>
</g>
</g>
<defs>
<clipPath id="clip0_52_53">
<rect width="70" height="70" fill="white" transform="translate(0.5)"/>
</clipPath>
</defs>
</svg>
