<svg id="Layer_1" enable-background="new 0 0 512 512" viewBox="0 0 512 512" xmlns="http://www.w3.org/2000/svg" xmlns:xlink="http://www.w3.org/1999/xlink"><linearGradient id="SVGID_1_" gradientUnits="userSpaceOnUse" x1="67.053" x2="413.695" y1="444.947" y2="98.305"><stop offset="0" stop-color="#fc4422"/><stop offset="1" stop-color="#ffbb32"/></linearGradient><path d="m417.4 271.241v-15.105c0-5.076 4.124-9.206 9.201-9.206s9.201 4.13 9.201 9.206v15.105c0 5.074-4.127 9.201-9.201 9.201s-9.201-4.127-9.201-9.201zm-329.768-67.853h57.299v57.299h-57.299zm13.779 30.772 8.503 8.489c.565.564 1.318.881 2.117.881.798 0 1.557-.316 2.121-.88l16.983-16.983c1.169-1.169 1.171-3.073.001-4.241-1.175-1.174-3.068-1.176-4.242-.001l-14.864 14.863-6.363-6.375c-1.174-1.177-3.082-1.169-4.257.003-1.17 1.169-1.169 3.075.001 4.244zm-13.779-143.808h57.299v57.304h-57.299zm13.779 30.772 8.503 8.489c.567.565 1.317.881 2.118.881.8 0 1.556-.315 2.121-.88l16.983-16.978c1.17-1.169 1.169-3.072 0-4.242-1.177-1.177-3.065-1.176-4.242 0l-14.863 14.857-6.363-6.37c-1.177-1.178-3.079-1.174-4.256.002-1.17 1.168-1.171 3.073-.001 4.241zm258.631 159.318c5.072 0 9.197-4.13 9.197-9.201v-15.105c0-5.073-4.121-9.206-9.197-9.206s-9.211 4.129-9.211 9.206v15.105c0 5.075 4.138 9.201 9.211 9.201zm-272.41 35.978h57.299v57.304h-57.299zm13.78 30.773 8.503 8.494c.565.565 1.319.876 2.117.876.797 0 1.557-.311 2.121-.875l16.983-16.983c1.17-1.17 1.174-3.076.002-4.245-1.174-1.171-3.071-1.175-4.243-.002l-14.863 14.862-6.363-6.37c-1.177-1.177-3.079-1.174-4.256.002-1.171 1.168-1.171 3.072-.001 4.241zm200.077 16.829h50.533v-50.528h-50.533zm92.401 84.498h50.528v-50.533h-50.528zm-92.401 0h50.533v-50.533h-50.533zm-89.779-187.833h-32.06c-1.657 0-3.001 1.344-3.001 3.001v155.347h-135.508v-385.035h308.25v211.294l-.528.574c-2.587 2.81-4.032 6.443-4.032 10.267v4.552h-36.149v-4.552c0-8.378-6.82-15.203-15.198-15.203-8.384 0-15.212 6.817-15.212 15.203v4.552h-36.149v-4.552c0-8.386-6.829-15.203-15.212-15.203-8.378 0-15.198 6.826-15.198 15.203v4.552zm-60.782 52.732c0-1.654-1.342-2.996-2.996-2.996h-63.301c-1.656 0-3.001 1.339-3.001 2.996v63.301c0 1.659 1.342 3.001 3.001 3.001h63.301c1.657 0 2.996-1.345 2.996-3.001zm0-113.031c0-1.656-1.339-3.001-2.996-3.001h-63.301c-1.659 0-3.001 1.342-3.001 3.001v63.301c0 1.659 1.343 2.996 3.001 2.996h63.301c1.656 0 2.996-1.34 2.996-2.996zm0-113.032c0-1.656-1.339-3.001-2.996-3.001h-63.301c-1.659 0-3.001 1.342-3.001 3.001v63.301c0 1.657 1.345 2.996 3.001 2.996h63.301c1.654 0 2.996-1.342 2.996-2.996zm26.943 0c0 1.661 1.341 2.996 3.001 2.996h62.776c1.656 0 3.001-1.339 3.001-2.996 0-1.659-1.342-3.001-3.001-3.001h-62.776c-1.664 0-3.001 1.338-3.001 3.001zm0 31.648c0 1.663 1.338 3.001 3.001 3.001h135.849c1.656 0 3.001-1.344 3.001-3.001s-1.345-3.001-3.001-3.001h-135.849c-1.664 0-3.001 1.338-3.001 3.001zm0 31.652c0 1.661 1.341 2.996 3.001 2.996h135.849c1.654 0 3.001-1.342 3.001-2.996 0-1.659-1.343-3.001-3.001-3.001h-135.849c-1.666.001-3.001 1.336-3.001 3.001zm0 49.732c0 1.663 1.337 3.001 3.001 3.001h62.776c1.658 0 3.001-1.342 3.001-3.001s-1.342-3.001-3.001-3.001h-62.776c-1.664 0-3.001 1.337-3.001 3.001zm3.001 34.649h135.849c1.656 0 3.001-1.344 3.001-3.001 0-1.654-1.348-2.996-3.001-2.996h-135.849c-1.66 0-3.001 1.335-3.001 2.996 0 1.663 1.337 3.001 3.001 3.001zm289.987 31.648v211.315h-288.208v-211.315h29.06v4.557c0 8.378 6.821 15.203 15.198 15.203 8.384 0 15.212-6.817 15.212-15.203v-4.557h36.149v4.557c0 8.386 6.828 15.203 15.212 15.203 8.378 0 15.198-6.826 15.198-15.203v-4.557h36.149v4.557c0 8.386 6.829 15.203 15.212 15.203 8.378 0 15.198-6.826 15.198-15.203v-4.557h36.158v4.557c0 8.385 6.818 15.203 15.203 15.203 8.378 0 15.198-6.826 15.198-15.203v-4.557zm-205.228 128.301c0-1.657-1.344-3.001-3.001-3.001h-56.54c-1.659 0-3.001 1.342-3.001 3.001v56.53c0 1.659 1.342 3.001 3.001 3.001h56.54c1.656 0 3.001-1.344 3.001-3.001zm0-84.493c0-1.656-1.344-3.001-3.001-3.001h-56.54c-1.659 0-3.001 1.342-3.001 3.001v56.53c0 1.659 1.342 3.001 3.001 3.001h56.54c1.656 0 3.001-1.344 3.001-3.001zm92.392 84.493c0-1.657-1.345-3.001-3.001-3.001h-56.53c-1.659 0-3.001 1.342-3.001 3.001v56.53c0 1.659 1.342 3.001 3.001 3.001h56.53c1.656 0 3.001-1.344 3.001-3.001zm0-84.493c0-1.656-1.345-3.001-3.001-3.001h-56.53c-1.659 0-3.001 1.342-3.001 3.001v56.53c0 1.659 1.342 3.001 3.001 3.001h56.53c1.656 0 3.001-1.344 3.001-3.001zm92.397 84.493c0-1.659-1.342-3.001-3.001-3.001h-56.53c-1.657 0-2.996 1.345-2.996 3.001v56.53c0 1.656 1.339 3.001 2.996 3.001h56.53c1.659 0 3.001-1.342 3.001-3.001zm0-84.493c0-1.659-1.342-3.001-3.001-3.001h-56.53c-1.657 0-2.996 1.345-2.996 3.001v56.53c0 1.656 1.339 3.001 2.996 3.001h56.53c1.659 0 3.001-1.342 3.001-3.001zm-56.53 53.529h50.528v-50.528h-50.528zm-109.618-107.886v15.105c0 5.08 4.133 9.201 9.211 9.201 5.072 0 9.196-4.13 9.196-9.201v-15.105c0-5.073-4.121-9.206-9.196-9.206-5.082 0-9.211 4.124-9.211 9.206zm-66.56 0v15.105c0 5.074 4.122 9.201 9.197 9.201 5.078 0 9.211-4.122 9.211-9.201v-15.105c0-5.082-4.13-9.206-9.211-9.206-5.078 0-9.197 4.13-9.197 9.206zm-8.625 192.384h50.542v-50.533h-50.542zm0-84.498h50.542v-50.528h-50.542z" fill="url(#SVGID_1_)"/></svg>