<svg width="51" height="63" viewBox="0 0 51 63" fill="none" xmlns="http://www.w3.org/2000/svg">
<path d="M0.601412 23.2592C0.534197 22.6205 0.5 21.9751 0.5 21.3209C0.501179 9.54595 11.6943 0 25.5006 0C39.3069 0 50.5 9.54595 50.5 21.3209C50.5 21.9741 50.4658 22.6205 50.3986 23.2592H50.5C50.5 34.911 25.5006 62.0244 25.5006 62.0244C25.5006 62.0244 0.501179 34.975 0.501179 23.2592H0.601412ZM25.5006 27.1357C30.8648 27.2597 35.3388 23.7912 35.5004 19.3826C35.3388 14.9741 30.8648 11.5055 25.5006 11.6296C20.1363 11.5055 15.6624 14.9741 15.5008 19.3826C15.6624 23.7912 20.1363 27.2597 25.5006 27.1357Z" fill="#F1592A"/>
</svg>
